<svg width="160" height="160" viewBox="0 0 160 160" fill="none" xmlns="http://www.w3.org/2000/svg">
<mask id="mask0" mask-type="alpha" maskUnits="userSpaceOnUse" x="0" y="0" width="160" height="160">
<circle cx="80" cy="80" r="80" fill="#E8F6FD"/>
</mask>
<g mask="url(#mask0)">
<path d="M92.8952 114.501L138.664 137.244C141.368 138.587 143.701 140.565 145.462 143.006C147.223 145.446 148.358 148.277 148.77 151.252L149.913 159.506H11.087L12.2298 151.252C12.6419 148.277 13.7775 145.446 15.5384 143.006C17.2993 140.565 19.6324 138.587 22.3356 137.244L68.1048 114.501H92.8952Z" fill="#EA9D2D"/>
<path d="M22.3325 137.244L25.9612 135.442V159.506H11.087L12.2305 151.252C12.6429 148.278 13.7783 145.447 15.5384 143.007C17.2985 140.566 19.6305 138.588 22.3325 137.244Z" fill="#EA9D2D"/>
<path d="M149.913 159.506H135.039V135.442L138.667 137.244C141.37 138.588 143.701 140.566 145.462 143.007C147.222 145.447 148.357 148.278 148.77 151.252L149.913 159.506Z" fill="#EA9D2D"/>
<path d="M112.17 124.078L80.5 149.651L48.8304 124.078L59.4964 118.779L68.1049 114.501H92.8952L102.942 119.493L112.17 124.078Z" fill="#EA9D2D"/>
<path d="M97.8533 116.964L92.8952 114.501V104.646H68.1048V114.501L63.1468 116.964L80.5 124.355L97.8533 116.964Z" fill="#F6BB92"/>
<path d="M92.8952 104.647V108.231C92.8704 108.25 92.8425 108.265 92.8177 108.284C89.1684 110.739 84.8603 112.047 80.4532 112.038C76.046 112.028 71.7436 110.702 68.1048 108.231V104.647H92.8952Z" fill="#F6BB92"/>
<path d="M92.8952 104.647V108.231C92.8704 108.25 92.8425 108.265 92.8177 108.284C89.1684 110.739 84.8603 112.047 80.4532 112.038C76.046 112.028 71.7436 110.702 68.1048 108.231V104.647H92.8952Z" fill="#E6AF89"/>
<path d="M25.9612 135.442V159.506H11.087L12.2305 151.252C12.6429 148.278 13.7783 145.447 15.5384 143.007C17.2985 140.566 19.6305 138.588 22.3325 137.244L25.9612 135.442Z" fill="#CBCBCB"/>
<path d="M149.913 159.506H135.039V135.442L138.667 137.244C141.37 138.588 143.701 140.566 145.462 143.007C147.222 145.447 148.357 148.278 148.77 151.252L149.913 159.506Z" fill="#CBCBCB"/>
<path d="M80.5 109.574C76.1092 109.573 71.8191 108.266 68.1832 105.82C64.5473 103.373 61.7324 99.9006 60.1016 95.8492C57.2003 88.6412 55.7097 80.9492 55.7096 73.1859V53.5692C55.7096 47.0352 58.3215 40.7689 62.9706 36.1487C67.6197 31.5284 73.9252 28.9328 80.5 28.9328C87.0748 28.9328 93.3803 31.5284 98.0294 36.1487C102.679 40.7689 105.29 47.0352 105.29 53.5692V73.1859C105.291 80.9499 103.8 88.6427 100.898 95.8514C99.2672 99.9023 96.4522 103.375 92.8163 105.821C89.1804 108.266 84.8905 109.574 80.5 109.574Z" fill="#F6BB92"/>
<path d="M95.3742 65.8874H87.9371C87.2796 65.8874 86.6491 65.6278 86.1842 65.1658C85.7193 64.7038 85.4581 64.0772 85.4581 63.4238C85.4581 62.7704 85.7193 62.1437 86.1842 61.6817C86.6491 61.2197 87.2796 60.9601 87.9371 60.9601H95.3742C96.0317 60.9601 96.6622 61.2197 97.1272 61.6817C97.5921 62.1437 97.8532 62.7704 97.8532 63.4238C97.8532 64.0772 97.5921 64.7038 97.1272 65.1658C96.6622 65.6278 96.0317 65.8874 95.3742 65.8874Z" fill="#683B0D"/>
<path d="M91.0359 73.8508C92.7473 73.8508 94.1347 72.472 94.1347 70.7712C94.1347 69.0705 92.7473 67.6917 91.0359 67.6917C89.3245 67.6917 87.9371 69.0705 87.9371 70.7712C87.9371 72.472 89.3245 73.8508 91.0359 73.8508Z" fill="#683B0D"/>
<path d="M73.0629 65.8874H65.6258C64.9683 65.8874 64.3378 65.6278 63.8728 65.1658C63.4079 64.7038 63.1468 64.0772 63.1468 63.4238C63.1468 62.7704 63.4079 62.1437 63.8728 61.6817C64.3378 61.2197 64.9683 60.9601 65.6258 60.9601H73.0629C73.7204 60.9601 74.3509 61.2197 74.8158 61.6817C75.2808 62.1437 75.5419 62.7704 75.5419 63.4238C75.5419 64.0772 75.2808 64.7038 74.8158 65.1658C74.3509 65.6278 73.7204 65.8874 73.0629 65.8874Z" fill="#683B0D"/>
<path d="M69.9641 73.8508C71.6755 73.8508 73.0629 72.472 73.0629 70.7712C73.0629 69.0705 71.6755 67.6917 69.9641 67.6917C68.2527 67.6917 66.8653 69.0705 66.8653 70.7712C66.8653 72.472 68.2527 73.8508 69.9641 73.8508Z" fill="#683B0D"/>
<path d="M82.979 85.5965H78.021C77.3635 85.5965 76.7329 85.3369 76.268 84.8749C75.8031 84.4129 75.5419 83.7863 75.5419 83.1329V78.8649C75.5419 78.2115 75.8031 77.5849 76.268 77.1229C76.7329 76.6608 77.3635 76.4013 78.021 76.4013C78.6784 76.4013 79.309 76.6608 79.7739 77.1229C80.2388 77.5849 80.5 78.2115 80.5 78.8649V80.6692H82.979C83.6365 80.6692 84.2671 80.9288 84.732 81.3908C85.1969 81.8528 85.4581 82.4795 85.4581 83.1329C85.4581 83.7863 85.1969 84.4129 84.732 84.8749C84.2671 85.3369 83.6365 85.5965 82.979 85.5965Z" fill="#E6AF89"/>
<path d="M56.6393 62.7644H52.2836C50.5625 62.7644 48.9118 63.4438 47.6947 64.6532C46.4776 65.8626 45.7937 67.5029 45.7935 69.2133V73.5589C45.7935 74.5602 46.0281 75.5478 46.4786 76.4435C47.0177 77.5148 47.8463 78.4157 48.8716 79.0454C49.8969 79.6751 51.0783 80.0086 52.2836 80.0087H56.9492L56.6393 62.7644Z" fill="#F6BB92"/>
<path d="M104.361 62.7644H108.716C110.438 62.7644 112.088 63.4438 113.305 64.6532C114.522 65.8626 115.206 67.5029 115.207 69.2133V73.5589C115.206 74.5602 114.972 75.5478 114.521 76.4435C113.982 77.5148 113.154 78.4157 112.128 79.0454C111.103 79.6751 109.922 80.0086 108.716 80.0087H104.051L104.361 62.7644Z" fill="#F6BB92"/>
<path d="M105.29 65.8874L104.98 64.6503C103.585 59.1051 100.16 54.2758 95.3742 51.1056L95.3123 51.1299C87.1632 54.3693 78.4713 56.0482 69.6945 56.0781L59.1044 56.1141C56.6127 56.1235 54.1677 55.4416 52.0448 54.1451C49.9218 52.8486 48.2051 50.989 47.0879 48.7756L46.8468 48.2982C45.7693 46.1635 45.3004 43.7763 45.4912 41.3955C45.6819 39.0147 46.525 36.7313 47.9289 34.7929L48.1068 34.5465C50.4711 31.2806 53.5836 28.6207 57.1871 26.7868C60.7906 24.9529 64.7815 23.9977 68.83 24C71.6902 24.0019 74.6811 24.0031 77.4251 24.0037C84.1577 24.0059 90.6139 26.665 95.3742 31.3965L96.3776 31.3937C98.3067 31.3882 100.199 31.9181 101.841 32.9237C103.484 33.9293 104.811 35.3706 105.674 37.0853L105.767 37.2735C108.662 43.0148 109.392 49.5972 107.823 55.8271C106.565 60.8194 105.29 65.8874 105.29 65.8874Z" fill="#683B0D"/>
<path d="M70.5839 129.942L80.5 137.333L90.4161 129.942L80.5 124.355L70.5839 129.942Z" fill="#CBCBCB"/>
<path d="M112.17 124.079L80.5 149.651L48.8304 124.079L59.4964 118.779L80.5 137.333L102.942 119.493L112.17 124.079Z" fill="#C38325"/>
<path d="M65.6258 112.697L80.5 124.355L60.6677 139.797L58.1887 119.428L65.6258 112.697Z" fill="#EAEAE8"/>
<path d="M95.3742 112.697L80.5 124.355L100.332 139.797L102.811 119.428L95.3742 112.697Z" fill="#EAEAE8"/>
</g>
</svg>
