<svg width="160" height="160" viewBox="0 0 160 160" fill="none" xmlns="http://www.w3.org/2000/svg">
<mask id="mask0" mask-type="alpha" maskUnits="userSpaceOnUse" x="0" y="0" width="160" height="160">
<circle cx="80" cy="80" r="80" fill="#E8F6FD"/>
</mask>
<g mask="url(#mask0)">
<path d="M89.6565 24H75.9232C72.742 24 69.9417 25.6081 68.3009 28.0468C68.096 28.3512 67.7524 28.5347 67.383 28.5345L64.4789 28.5332C56.8942 28.5332 50.7456 34.6221 50.7456 42.1332V65.7302H110.257V44.4C110.256 33.1335 101.033 24 89.6565 24Z" fill="#474F54"/>
<path d="M89.6565 24H83.3011C94.678 24 103.901 33.1335 103.901 44.4V65.7305H110.257V44.4C110.256 33.1335 101.033 24 89.6565 24V24Z" fill="#32393F"/>
<path d="M53.0314 110.133C42.9192 110.133 34.7213 118.251 34.7213 128.266V155.467C34.7213 157.971 36.7709 160 39.2992 160H71.3453L80.5 155.964L89.6568 160H121.701C124.229 160 126.279 157.97 126.279 155.467L126.278 128.266C126.278 118.251 118.08 110.133 107.968 110.133H53.0314Z" fill="#F9F8F9"/>
<path d="M126.278 128.266C126.278 118.251 118.08 110.133 107.968 110.133H101.612C111.725 110.133 119.922 118.251 119.922 128.266L119.923 155.467C119.923 157.97 117.874 160 115.345 160H121.701C124.229 160 126.279 157.97 126.279 155.467L126.278 128.266Z" fill="#DBECF3"/>
<path d="M91.9593 127.141L89.6568 160H71.3453L69.0415 127.141V122.466L80.5 121.467L91.9593 122.466V127.141Z" fill="#5CE3FF"/>
<path d="M66.7672 122.648V92.8803L94.2339 92.8827V122.648H66.7672Z" fill="#FFBFAB"/>
<path d="M107.967 60.2666C110.496 60.2666 112.545 62.2962 112.545 64.8V73.8668C112.545 76.3706 110.496 78.4003 107.967 78.4003H53.0341C50.5058 78.4003 48.4563 76.3706 48.4563 73.8668V64.8C48.4563 62.2962 50.5058 60.2666 53.0341 60.2666H107.967Z" fill="#FFBFAB"/>
<path d="M103.39 78.4011C103.39 90.9194 93.1419 101.067 80.5011 101.067C67.86 101.067 57.6125 90.9192 57.6125 78.4011L57.6123 55.7334C57.6123 50.7261 61.7113 46.6668 66.7677 46.6668H103.39L103.39 78.4011Z" fill="#FFCEBF"/>
<path d="M71.3451 73.6525C70.2005 73.6525 69.2727 72.7337 69.2727 71.6003V69.3337C69.2727 68.2003 70.2005 67.2815 71.3451 67.2815C72.4896 67.2815 73.4174 68.2003 73.4174 69.3337V71.6003C73.4177 72.7334 72.4896 73.6525 71.3451 73.6525Z" fill="#474F54"/>
<path d="M89.6563 73.6525C88.5117 73.6525 87.5839 72.7337 87.5839 71.6003V69.3337C87.5839 68.2003 88.5117 67.2815 89.6563 67.2815C90.8008 67.2815 91.7286 68.2003 91.7286 69.3337V71.6003C91.7286 72.7334 90.8008 73.6525 89.6563 73.6525Z" fill="#474F54"/>
<path d="M80.5008 84.9864C78.1382 84.9864 75.9326 83.726 74.7446 81.6969C74.1706 80.7163 74.5077 79.4606 75.498 78.8922C76.4883 78.324 77.7563 78.6579 78.3303 79.6383C78.7796 80.4055 79.6111 80.882 80.5008 80.882C81.3905 80.882 82.222 80.4055 82.6713 79.6383C83.245 78.6577 84.5135 78.3235 85.5035 78.8922C86.4938 79.4606 86.831 80.7165 86.257 81.6969C85.0693 83.7258 82.8636 84.9864 80.5008 84.9864Z" fill="#DE6D03"/>
<path d="M110.256 146.4C114.049 146.4 117.123 143.356 117.123 139.6C117.123 135.844 114.049 132.8 110.256 132.8C106.464 132.8 103.39 135.844 103.39 139.6C103.39 143.356 106.464 146.4 110.256 146.4Z" fill="#CDCDD4"/>
<path d="M110.257 139.386C109.112 139.386 108.184 138.467 108.184 137.333V110.133C108.184 106.266 105.007 103.119 101.101 103.119H94.2344C93.0899 103.119 92.1621 102.2 92.1621 101.067C92.1621 99.9334 93.0899 99.0146 94.2344 99.0146H101.101C107.292 99.0146 112.329 104.003 112.329 110.134V137.334C112.329 138.467 111.401 139.386 110.257 139.386Z" fill="#12B0FF"/>
<path d="M71.3453 160L75.9229 132.8L80.5008 128.833L85.0787 132.8L89.6568 160H71.3453Z" fill="#12B0FF"/>
<path d="M103.527 60.2666H85.0787C74.9656 60.2666 66.7675 52.148 66.7675 42.1332H103.527V60.2666Z" fill="#474F54"/>
<path d="M80.5 121.467L73.6341 122.065V124.867L75.9229 132.8H85.0787L87.3675 124.867V122.065L80.5 121.467Z" fill="#0093FD"/>
<path d="M66.7675 105.6L59.9008 110.133L65.8748 125.909C66.352 127.169 67.8262 127.743 69.0415 127.141L80.5008 121.467L66.7675 105.6Z" fill="#99ECFF"/>
<path d="M94.2333 105.6L101.1 110.133L95.126 125.909C94.6488 127.169 93.1746 127.743 91.9593 127.141L80.5 121.467L94.2333 105.6Z" fill="#99ECFF"/>
<path d="M53.0341 132.586C51.8896 132.586 50.9618 131.667 50.9618 130.534V110.133C50.9618 104.003 55.9986 99.0144 62.1899 99.0144H66.7677C67.9123 99.0144 68.8401 99.9332 68.8401 101.067C68.8401 102.2 67.9123 103.119 66.7677 103.119H62.1899C58.2842 103.119 55.1067 106.265 55.1067 110.133V130.533C55.1065 131.667 54.1787 132.586 53.0341 132.586Z" fill="#12B0FF"/>
<path d="M59.9008 152.986H57.6117C56.4672 152.986 55.5394 152.067 55.5394 150.933C55.5394 149.8 56.4672 148.881 57.6117 148.881H59.9008C60.0202 148.881 60.1172 148.785 60.1172 148.667V139.6C60.1172 137.69 59.3557 135.904 57.973 134.572C56.5908 133.24 54.765 132.538 52.8338 132.588C49.0386 132.691 45.9513 135.921 45.9513 139.789V148.667C45.9513 148.785 46.0484 148.881 46.1677 148.881H48.4565C49.6011 148.881 50.5289 149.8 50.5289 150.933C50.5289 152.067 49.6011 152.985 48.4565 152.985H46.1677C43.7631 152.985 41.8063 151.048 41.8063 148.666V139.789C41.8063 133.719 46.7023 128.649 52.7203 128.485C55.7792 128.4 58.6726 129.519 60.8637 131.63C63.0554 133.742 64.2625 136.572 64.2625 139.6V148.667C64.2622 151.048 62.3057 152.986 59.9008 152.986Z" fill="#CDCDD4"/>
<path d="M66.7672 98.5333H69.3087V103.869H66.7672V98.5333Z" fill="#FFBFAB"/>
<path d="M91.6926 98.5333H94.2341V103.869H91.6926V98.5333Z" fill="#FFBFAB"/>
<path d="M66.7675 35.1191C67.912 35.1191 68.8398 34.2003 68.8398 33.0668C68.8398 28.1453 72.8179 24.1294 77.7568 24.0003H75.9229C72.7417 24.0003 69.9414 25.6084 68.3007 28.0471C68.096 28.3515 67.7521 28.535 67.3828 28.5348L65.5062 28.534C64.9816 29.9479 64.6949 31.4747 64.6949 33.0668C64.6949 34.2 65.6229 35.1191 66.7675 35.1191Z" fill="#32393F"/>
</g>
</svg>
