<svg width="160" height="160" viewBox="0 0 160 160" fill="none" xmlns="http://www.w3.org/2000/svg">
<mask id="mask0" mask-type="alpha" maskUnits="userSpaceOnUse" x="0" y="0" width="160" height="160">
<circle cx="80" cy="80" r="80" fill="#E8F6FD"/>
</mask>
<g mask="url(#mask0)">
<path d="M120.557 117.813L111.79 109.882C110.102 108.355 107.908 107.51 105.633 107.51H58.7141C56.439 107.51 54.2449 108.355 52.5577 109.882L43.7899 117.813C41.8477 119.57 40.7398 122.067 40.7398 124.686V147.844C40.7398 153.091 44.993 157.344 50.2393 157.344L83.3883 160H110.508L113.702 147.547C114.06 147.547 114.35 147.257 114.35 146.899L123.608 140.771V124.686C123.608 122.067 122.499 119.571 120.557 117.813Z" fill="#5D91B9"/>
<path d="M113.859 65.4407V78.0417L50.4877 76.1929V53.2219H86.6788L113.859 65.4407Z" fill="#BE694E"/>
<path d="M107.442 77.8528L113.859 78.0417V53.2219H107.442V77.8528Z" fill="#AC583E"/>
<path d="M120.557 117.813L111.79 109.882C110.102 108.355 107.908 107.51 105.633 107.51H97.0239C99.2989 107.51 101.493 108.355 103.18 109.882L111.948 117.813C113.89 119.57 114.998 122.067 114.998 124.686V156.696C114.998 157.053 114.708 157.344 114.35 157.344H120.303C120.662 157.344 120.952 157.054 120.952 156.696L123.608 140.771V124.686C123.608 122.067 122.499 119.57 120.557 117.813Z" fill="#4980AC"/>
<path d="M108.455 140.771V160H122.959C123.317 160 123.608 159.71 123.608 159.352V140.771H108.455Z" fill="#FFCDBE"/>
<path d="M114.998 140.771V159.352C114.998 159.71 114.708 160 114.35 160H122.96C123.273 160 123.534 159.778 123.595 159.483C123.603 159.441 123.608 159.397 123.608 159.352V140.771H114.998V140.771Z" fill="#EBAE9D"/>
<path d="M57.9443 158.672V132.387C57.9443 131.253 57.0255 130.334 55.8921 130.334C54.7587 130.334 53.8399 131.253 53.8399 132.387V158.672H57.9443Z" fill="#4980AC"/>
<path d="M110.508 160V132.387C110.508 131.253 109.589 130.334 108.456 130.334C107.322 130.334 106.403 131.253 106.403 132.387V160H110.508Z" fill="#4980AC"/>
<path d="M73.5641 87.6807V107.89C73.5641 112.645 77.4186 116.5 82.1736 116.5C86.9285 116.5 90.783 112.645 90.783 107.89V87.6807H73.5641Z" fill="#EBAE9D"/>
<path d="M110.434 86.1631H53.9132C50.5647 86.1631 47.85 83.4485 47.85 80.1C47.85 76.7515 50.5647 74.0368 53.9132 74.0368H110.434C113.783 74.0368 116.497 76.7515 116.497 80.1C116.497 83.4485 113.783 86.1631 110.434 86.1631Z" fill="#FFCDBE"/>
<path d="M103.801 61.4242V87.5752C103.801 93.6721 98.8585 98.6148 92.7613 98.6148H71.5857C65.4888 98.6148 60.5461 93.6724 60.5461 87.5752V64.6836C60.5461 63.5712 61.2202 62.5608 62.2578 62.1597C66.7011 60.4419 70.9116 57.9652 74.3966 54.8574C75.249 54.0972 76.469 53.9312 77.5009 54.4212C84.978 57.9729 93.3348 59.6546 101.605 59.3042C102.805 59.2532 103.801 60.223 103.801 61.4242Z" fill="#FFCDBE"/>
<path d="M101.605 59.3042C93.3348 59.6546 84.9783 57.9729 77.5009 54.4212C76.469 53.9312 75.2492 54.0969 74.3966 54.8574C74.3249 54.9214 74.251 54.9833 74.1788 55.0468C81.2991 58.1689 89.1433 59.6336 96.9115 59.3045C98.1113 59.2537 99.1074 60.2233 99.1074 61.4244V87.5755C99.1074 93.6724 94.1649 98.6151 88.0678 98.6151H92.7611C98.858 98.6151 103.801 93.6724 103.801 87.5755V61.4244C103.801 60.223 102.805 59.2532 101.605 59.3042Z" fill="#EBAE9D"/>
<path d="M70.7923 76.6915C69.6613 76.6915 68.5308 76.4737 67.408 76.0378C66.3513 75.6277 65.8273 74.4385 66.2374 73.3818C66.6475 72.3252 67.8364 71.8011 68.8934 72.2112C70.1715 72.7074 71.4139 72.7074 72.6921 72.2112C73.7485 71.8013 74.9377 72.3254 75.348 73.3818C75.7579 74.4385 75.2338 75.6277 74.1774 76.0378C73.0541 76.4734 71.9231 76.6915 70.7923 76.6915Z" fill="#766D78"/>
<path d="M93.5548 76.6915C92.4238 76.6915 91.2933 76.4737 90.1705 76.0378C89.1138 75.6277 88.5897 74.4385 88.9998 73.3818C89.4102 72.3251 90.5994 71.8011 91.6558 72.2112C92.9338 72.7071 94.1763 72.7076 95.4543 72.2112C96.5107 71.8013 97.6999 72.3254 98.1103 73.3818C98.5201 74.4385 97.996 75.6277 96.9396 76.0378C95.8163 76.4734 94.6856 76.6915 93.5548 76.6915Z" fill="#766D78"/>
<path d="M89.0623 149.985V154.863C89.0623 157.7 86.7625 160 83.9253 160H74.162L52.5874 157.344V144.848H83.9256C86.7625 144.848 89.0623 147.148 89.0623 149.985Z" fill="#FFCDBE"/>
<path d="M71.857 139.985C70.8887 139.985 70.0271 139.297 69.8419 138.311L64.1403 107.888C63.9315 106.774 64.6654 105.702 65.7795 105.493C66.894 105.285 67.9658 106.018 68.1749 107.132L73.8765 137.554C74.0853 138.668 73.3514 139.741 72.2373 139.95C72.1098 139.974 71.9823 139.985 71.857 139.985Z" fill="#62A4FB"/>
<path d="M37.8755 137.933H75.4243C76.2435 137.933 76.9075 138.597 76.9075 139.416V157.255C76.9075 158.771 75.6785 160 74.162 160H46.5397C40.9355 160 36.3923 155.457 36.3923 149.853V139.416C36.3923 138.597 37.0563 137.933 37.8755 137.933Z" fill="#80B6FC"/>
<path d="M74.162 153.907H46.5397C40.9355 153.907 36.3925 149.364 36.3925 143.759V149.853C36.3925 155.457 40.9355 160 46.54 160H74.1623C75.6785 160 76.9078 158.771 76.9078 157.254V151.161C76.9073 152.678 75.6782 153.907 74.162 153.907Z" fill="#62A4FB"/>
<path d="M77.2247 24H87.1224C101.889 24 113.86 35.9707 113.86 50.7375V66.2636L50.4874 54.792V50.7378C50.4874 35.9707 62.4581 24 77.2247 24V24Z" fill="#DDEBFD"/>
<path d="M87.1224 24H80.7046C95.4712 24 107.442 35.9707 107.442 50.7373V65.1015L113.86 66.2633V50.7373C113.86 35.9707 101.889 24 87.1224 24V24Z" fill="#BED9FD"/>
<path d="M109.781 36.5404L72.6334 43.2655C71.518 43.4674 70.7775 44.5352 70.9796 45.6506C71.1592 46.6421 72.0232 47.3375 72.9967 47.3375C73.1181 47.3375 73.2414 47.3269 73.3646 47.3043L111.768 40.3519C111.207 39.023 110.54 37.7495 109.781 36.5404Z" fill="#BED9FD"/>
<path d="M57.2866 32.925C55.9803 34.3862 54.8325 35.9916 53.8696 37.715L102.553 28.9005C100.764 27.634 98.8125 26.5829 96.7362 25.7826L57.2866 32.925Z" fill="#BED9FD"/>
<path d="M51.4859 43.4759L113.86 54.7657C113.86 54.7657 113.858 50.6419 113.858 50.5941L52.9277 39.5659C52.3502 40.8199 51.866 42.126 51.4859 43.4759Z" fill="#BED9FD"/>
</g>
</svg>
